<?xml version="1.0" encoding="utf-8"?>
<!-- Generator: Adobe Illustrator 21.0.0, SVG Export Plug-In . SVG Version: 6.00 Build 0)  -->
<svg version="1.1" id="Camada_1" xmlns="http://www.w3.org/2000/svg" xmlns:xlink="http://www.w3.org/1999/xlink" x="0px" y="0px"
	 viewBox="0 0 307.7 94" style="enable-background:new 0 0 307.7 94;" xml:space="preserve">
<style type="text/css">
	.st0{fill:#FFFFFF;}
	.st1{fill:#E7E4E9;}
	.st2{fill:#FF6314;}
	.st3{fill:#FF640F;}
	.st4{fill:#8E8E8E;}
	.st5{fill:#5F5C5F;}
	.st6{fill:#FF6410;}
	.st7{fill:#FF5A00;}
</style>
<g>
	<g>
		<circle class="st0" cx="50.4" cy="48.4" r="38.7"/>
		<g>
			<path class="st1" d="M50.3,14.3c-0.4,0-0.8,0-1.1,0C66.3,14.9,80,29,80,46.3c0,17.7-14.3,32-32,32c-16.5,0-30.1-12.5-31.8-28.5
				C17,68,31.9,82.5,50.3,82.5c18.8,0,34.1-15.3,34.1-34.1S69.2,14.3,50.3,14.3z"/>
			<path class="st2" d="M75.1,39.8c0.2,1.2,0.3,2.4,0.3,3.7c0,13.9-11.3,25.1-25.1,25.1S25.1,57.4,25.1,43.5
				c0-13.9,11.3-25.1,25.1-25.1c1.4,0,2.7,0.1,4,0.3c-2.1-0.5-4.2-0.7-6.4-0.7c-15.4,0-27.9,12.5-27.9,27.9
				c0,15.4,12.5,27.9,27.9,27.9s27.9-12.5,27.9-27.9C75.7,43.8,75.5,41.8,75.1,39.8z"/>
			<path class="st3" d="M57.4,52.8v5.3H42.7v-5.3h-4.3v5.8c0,2.1,1.7,3.9,3.9,3.9h15.7c2.1,0,3.9-1.7,3.9-3.9v-5.8H57.4z"/>
			<path class="st3" d="M57.9,24.6H42.2c-2.1,0-3.9,1.7-3.9,3.9v0.2h9.4v-1h4.8v1h9.2v-0.2C61.7,26.3,60,24.6,57.9,24.6z"/>
			<polygon class="st4" points="42.8,48 38.2,48 38.2,33.6 42.8,33.6 56.9,43.2 56.9,33.6 61.7,33.6 61.7,48 57,48 42.9,38.9 			"/>
		</g>
	</g>
	<g>
		<g>
			<path class="st5" d="M96.4,17.5h4.3v22.1c0,3.6,0.8,6.2,2.3,7.9c1.5,1.7,3.9,2.5,7.2,2.5c3.3,0,5.7-0.8,7.2-2.5
				c1.5-1.7,2.3-4.3,2.3-7.9V17.5h4.3v22.1c0,4.8-1.1,8.4-3.4,10.8c-2.3,2.4-5.7,3.6-10.3,3.6c-4.6,0-8-1.2-10.3-3.6
				c-2.3-2.4-3.4-6-3.4-10.8V17.5z"/>
			<path class="st5" d="M132.3,53V16.1l26,28.4v-27h4v36.9l-26-28.1V53H132.3z"/>
			<path class="st5" d="M170.9,53V17.5h4.2V53H170.9z"/>
			<path class="st5" d="M212.5,26c-1.7-1.8-3.5-3.2-5.4-4.1c-1.9-0.9-4.1-1.3-6.4-1.3c-1.9,0-3.7,0.4-5.5,1.1
				c-1.8,0.8-3.3,1.8-4.6,3.2c-1.4,1.4-2.4,3-3.1,4.7c-0.7,1.7-1,3.7-1,5.8c0,1.6,0.2,3.2,0.6,4.6c0.4,1.4,1,2.7,1.8,3.8
				c1.4,2,3.2,3.6,5.3,4.7c2.1,1.1,4.3,1.6,6.7,1.6c2.3,0,4.4-0.5,6.3-1.4c1.9-0.9,3.7-2.3,5.3-4.2v5.6c-1.8,1.3-3.7,2.2-5.7,2.9
				c-2,0.7-4.1,1-6.3,1c-1.9,0-3.7-0.3-5.5-0.8c-1.8-0.6-3.4-1.4-5-2.4c-2.6-1.8-4.6-4-5.9-6.6c-1.4-2.6-2.1-5.5-2.1-8.6
				c0-2.7,0.5-5.2,1.4-7.5c0.9-2.2,2.3-4.3,4.2-6.1c1.8-1.7,3.8-3.1,6-3.9c2.2-0.9,4.6-1.3,7.2-1.3c2.1,0,4,0.3,6,0.9
				c1.9,0.6,3.8,1.6,5.7,2.9V26z"/>
			<path class="st5" d="M219.7,53V17.5h18.7v3.9h-14.5v10.2h14.5v3.9h-14.5v13.6h14.5V53H219.7z"/>
			<path class="st6" d="M245.6,53V17.5h4.2V49h13.4v4H245.6z"/>
			<path class="st6" d="M268.3,53V17.5h4.2V49h13.4v4H268.3z"/>
		</g>
		<g>
			<path class="st7" d="M103.8,68.6c0.9,0.4,1.6,0.9,2,1.5c0.5,0.6,0.7,1.4,0.7,2.3c0,1.3-0.4,2.3-1.2,3.1c-0.8,0.8-1.9,1.2-3.2,1.2
				c-1.1,0-2-0.3-2.7-0.8s-1.2-1.3-1.5-2.4l1.5-0.7c0.2,0.8,0.5,1.5,1,1.9s1,0.6,1.7,0.6c0.8,0,1.5-0.2,2-0.7
				c0.5-0.5,0.8-1.1,0.8-1.9c0-0.6-0.2-1.2-0.5-1.6c-0.4-0.5-0.9-0.8-1.6-1.2l-1.7-0.7c-0.9-0.4-1.6-0.9-2-1.5
				c-0.4-0.6-0.7-1.3-0.7-2.2c0-1,0.4-1.8,1.1-2.4c0.7-0.6,1.7-1,2.8-1c0.8,0,1.5,0.2,2.2,0.5c0.6,0.4,1.1,0.9,1.4,1.6l-1.4,0.9
				c-0.3-0.5-0.7-0.9-1-1.2s-0.8-0.4-1.3-0.4c-0.6,0-1.1,0.2-1.5,0.6c-0.4,0.4-0.6,0.9-0.6,1.4c0,0.5,0.2,0.9,0.5,1.3
				c0.3,0.4,0.8,0.7,1.4,1L103.8,68.6z"/>
			<path class="st7" d="M107.9,72c0-0.6,0.1-1.2,0.3-1.8c0.2-0.6,0.6-1.1,1-1.5c0.4-0.4,1-0.8,1.5-1s1.2-0.3,1.8-0.3
				c0.6,0,1.2,0.1,1.8,0.3c0.6,0.2,1.1,0.6,1.5,1c0.4,0.4,0.8,0.9,1,1.5s0.3,1.2,0.3,1.8c0,0.6-0.1,1.2-0.3,1.8
				c-0.2,0.6-0.6,1.1-1,1.5c-0.5,0.5-1,0.8-1.5,1c-0.6,0.2-1.2,0.4-1.8,0.4c-0.6,0-1.2-0.1-1.8-0.4c-0.6-0.2-1.1-0.6-1.5-1
				c-0.4-0.5-0.8-1-1-1.5S107.9,72.7,107.9,72z M109.5,72c0,0.9,0.3,1.7,0.9,2.3c0.6,0.6,1.3,0.9,2.2,0.9c0.9,0,1.6-0.3,2.2-0.9
				c0.6-0.6,0.9-1.4,0.9-2.3c0-0.9-0.3-1.7-0.9-2.3c-0.6-0.6-1.3-0.9-2.2-0.9c-0.9,0-1.6,0.3-2.2,0.9
				C109.8,70.3,109.5,71.1,109.5,72z"/>
			<path class="st7" d="M119.6,76.3V61.7h1.5v14.6H119.6z"/>
			<path class="st7" d="M125.6,67.7v4.2c0,1.2,0.2,2.1,0.6,2.6c0.4,0.5,1,0.7,1.9,0.7s1.5-0.2,1.9-0.7c0.4-0.5,0.5-1.4,0.5-2.6v-4.2
				h1.5v5c0,1.3-0.3,2.3-1,3s-1.6,1-2.9,1c-1.3,0-2.3-0.3-2.9-1c-0.7-0.7-1-1.7-1-2.9v-5H125.6z"/>
			<path class="st7" d="M141.4,74.3V76c-0.4,0.2-0.8,0.4-1.3,0.5s-1,0.2-1.6,0.2c-1.3,0-2.4-0.4-3.2-1.3c-0.8-0.8-1.2-2-1.2-3.3
				c0-1.4,0.4-2.5,1.3-3.4c0.8-0.9,1.9-1.3,3.2-1.3c0.5,0,0.9,0.1,1.4,0.2s0.9,0.2,1.3,0.4v1.6c-0.4-0.2-0.8-0.4-1.2-0.6
				c-0.4-0.1-0.8-0.2-1.2-0.2c-1,0-1.7,0.3-2.3,0.9c-0.6,0.6-0.9,1.4-0.9,2.4c0,0.9,0.3,1.6,0.9,2.2s1.3,0.9,2.2,0.9
				c0.4,0,0.9-0.1,1.3-0.2C140.5,74.9,140.9,74.6,141.4,74.3z M135.9,80.3v-0.9c0.5,0.1,0.9,0.2,1.3,0.3c0.4,0.1,0.7,0.1,1,0.1
				c0.4,0,0.7-0.1,0.9-0.2c0.2-0.1,0.3-0.3,0.3-0.6c0-0.3-0.1-0.5-0.3-0.6c-0.2-0.1-0.5-0.2-1-0.2c-0.1,0-0.2,0-0.3,0
				c-0.1,0-0.1,0-0.2,0v-1.9h0.7v1h0.3c0.7,0,1.2,0.1,1.6,0.4c0.4,0.3,0.5,0.7,0.5,1.3c0,0.6-0.2,1-0.6,1.3s-1,0.5-1.8,0.5
				c-0.3,0-0.7,0-1.1-0.1C136.8,80.6,136.4,80.5,135.9,80.3z"/>
			<path class="st7" d="M142.8,72c0-0.6,0.1-1.2,0.3-1.8c0.2-0.6,0.6-1.1,1-1.5c0.4-0.4,1-0.8,1.5-1s1.2-0.3,1.8-0.3
				c0.6,0,1.2,0.1,1.8,0.3c0.6,0.2,1.1,0.6,1.5,1c0.4,0.4,0.8,0.9,1,1.5s0.3,1.2,0.3,1.8c0,0.6-0.1,1.2-0.3,1.8
				c-0.2,0.6-0.6,1.1-1,1.5c-0.5,0.5-1,0.8-1.5,1c-0.6,0.2-1.2,0.4-1.8,0.4c-0.6,0-1.2-0.1-1.8-0.4c-0.6-0.2-1.1-0.6-1.5-1
				c-0.4-0.5-0.8-1-1-1.5S142.8,72.7,142.8,72z M144.3,72c0,0.9,0.3,1.7,0.9,2.3c0.6,0.6,1.3,0.9,2.2,0.9c0.9,0,1.6-0.3,2.2-0.9
				c0.6-0.6,0.9-1.4,0.9-2.3c0-0.9-0.3-1.7-0.9-2.3c-0.6-0.6-1.3-0.9-2.2-0.9c-0.9,0-1.6,0.3-2.2,0.9
				C144.6,70.3,144.3,71.1,144.3,72z M150.2,63.7c-0.1,0.6-0.3,1.1-0.7,1.5c-0.3,0.3-0.7,0.5-1.2,0.5c-0.1,0-0.2,0-0.3,0
				c-0.1,0-0.2,0-0.3-0.1l-0.9-0.2c-0.1,0-0.2,0-0.2-0.1c-0.1,0-0.2,0-0.2,0c-0.2,0-0.4,0.1-0.5,0.2c-0.1,0.1-0.3,0.3-0.3,0.5h-0.8
				c0.1-0.6,0.3-1.1,0.6-1.4s0.7-0.5,1.2-0.5c0.1,0,0.2,0,0.3,0s0.2,0,0.3,0.1l0.9,0.3c0.1,0,0.3,0.1,0.3,0.1c0.1,0,0.1,0,0.2,0
				c0.2,0,0.4-0.1,0.5-0.2c0.1-0.1,0.3-0.3,0.4-0.5H150.2z"/>
			<path class="st7" d="M162.1,72.2h-6.8v0.1c0,0.9,0.3,1.7,0.8,2.2c0.5,0.6,1.2,0.9,2.1,0.9c0.6,0,1.1-0.2,1.6-0.5
				c0.5-0.3,0.9-0.8,1.2-1.4l1.1,0.8c-0.4,0.8-1,1.4-1.7,1.8c-0.7,0.4-1.5,0.6-2.3,0.6c-1.3,0-2.4-0.4-3.2-1.3
				c-0.8-0.9-1.2-2-1.2-3.4c0-1.4,0.4-2.5,1.2-3.3s1.8-1.3,3.1-1.3c1.3,0,2.3,0.4,3,1.2c0.7,0.8,1.1,1.9,1.1,3.3V72.2z M160.6,71
				c-0.1-0.8-0.3-1.3-0.8-1.8c-0.5-0.4-1.1-0.6-1.9-0.6c-0.7,0-1.3,0.2-1.8,0.6c-0.5,0.4-0.8,1-0.8,1.7H160.6z"/>
			<path class="st7" d="M163.4,74.9l1.3-0.8c0.2,0.5,0.5,0.8,0.9,1c0.4,0.2,0.8,0.3,1.3,0.3c0.5,0,0.9-0.1,1.2-0.4
				c0.3-0.2,0.4-0.6,0.4-0.9c0-0.3-0.1-0.6-0.3-0.8c-0.2-0.2-0.6-0.4-1.1-0.6c-0.1,0-0.1,0-0.2-0.1c-2.1-0.7-3.1-1.6-3.1-2.7
				c0-0.8,0.3-1.4,0.8-1.9c0.6-0.5,1.3-0.7,2.2-0.7c0.7,0,1.4,0.1,1.9,0.4c0.5,0.3,0.9,0.7,1.1,1.3l-1.2,0.7
				c-0.2-0.4-0.4-0.7-0.8-0.9c-0.3-0.2-0.7-0.3-1.2-0.3c-0.4,0-0.8,0.1-1.1,0.4c-0.3,0.2-0.4,0.6-0.4,0.9c0,0.5,0.6,1,1.7,1.3
				c0.2,0.1,0.4,0.1,0.5,0.2c0.9,0.3,1.6,0.6,2,1c0.4,0.4,0.6,0.9,0.6,1.5c0,0.8-0.3,1.5-0.9,2c-0.6,0.5-1.3,0.8-2.3,0.8
				c-0.8,0-1.5-0.2-2-0.5S163.8,75.5,163.4,74.9z"/>
			<path class="st7" d="M189.3,65.8c-0.7-0.7-1.4-1.2-2.1-1.6c-0.7-0.3-1.6-0.5-2.5-0.5c-0.7,0-1.4,0.1-2.1,0.4
				c-0.7,0.3-1.3,0.7-1.8,1.2c-0.5,0.5-0.9,1.2-1.2,1.8c-0.3,0.7-0.4,1.4-0.4,2.2c0,0.6,0.1,1.2,0.2,1.8c0.2,0.5,0.4,1,0.7,1.5
				c0.6,0.8,1.2,1.4,2,1.8s1.7,0.6,2.6,0.6c0.9,0,1.7-0.2,2.5-0.5s1.4-0.9,2.1-1.6v2.2c-0.7,0.5-1.4,0.9-2.2,1.1
				c-0.8,0.3-1.6,0.4-2.4,0.4c-0.7,0-1.4-0.1-2.1-0.3c-0.7-0.2-1.3-0.5-1.9-0.9c-1-0.7-1.8-1.6-2.3-2.6c-0.5-1-0.8-2.1-0.8-3.4
				c0-1.1,0.2-2,0.5-2.9s0.9-1.7,1.6-2.4c0.7-0.7,1.5-1.2,2.3-1.5s1.8-0.5,2.8-0.5c0.8,0,1.6,0.1,2.3,0.4c0.7,0.2,1.5,0.6,2.2,1.1
				V65.8z"/>
			<path class="st7" d="M191.2,72c0-0.6,0.1-1.2,0.3-1.8c0.2-0.6,0.6-1.1,1-1.5c0.4-0.4,1-0.8,1.5-1c0.6-0.2,1.2-0.3,1.8-0.3
				c0.6,0,1.2,0.1,1.8,0.3c0.6,0.2,1.1,0.6,1.5,1c0.4,0.4,0.8,0.9,1,1.5s0.3,1.2,0.3,1.8c0,0.6-0.1,1.2-0.3,1.8
				c-0.2,0.6-0.6,1.1-1,1.5c-0.5,0.5-1,0.8-1.5,1c-0.6,0.2-1.2,0.4-1.8,0.4c-0.6,0-1.2-0.1-1.8-0.4c-0.6-0.2-1.1-0.6-1.5-1
				c-0.4-0.5-0.8-1-1-1.5S191.2,72.7,191.2,72z M192.8,72c0,0.9,0.3,1.7,0.9,2.3c0.6,0.6,1.3,0.9,2.2,0.9c0.9,0,1.6-0.3,2.2-0.9
				c0.6-0.6,0.9-1.4,0.9-2.3c0-0.9-0.3-1.7-0.9-2.3c-0.6-0.6-1.3-0.9-2.2-0.9c-0.9,0-1.6,0.3-2.2,0.9
				C193.1,70.3,192.8,71.1,192.8,72z"/>
			<path class="st7" d="M202.9,76.3v-8.6h1.3v1.8c0.4-0.7,0.8-1.3,1.3-1.6c0.4-0.3,1-0.5,1.6-0.5c0.2,0,0.3,0,0.5,0s0.3,0.1,0.5,0.1
				l-0.5,1.3c-0.2-0.1-0.3-0.1-0.5-0.1c-0.2,0-0.3,0-0.4,0c-0.8,0-1.4,0.3-1.8,0.8s-0.6,1.4-0.6,2.5v4.2H202.9z"/>
			<path class="st7" d="M209.7,80.5V67.7h1.4v1.6c0.3-0.6,0.8-1.1,1.3-1.4c0.5-0.3,1.2-0.5,1.8-0.5c1.2,0,2.2,0.4,3,1.3
				c0.8,0.8,1.1,2,1.1,3.4c0,1.4-0.4,2.6-1.1,3.4s-1.7,1.3-3,1.3c-0.7,0-1.3-0.2-1.9-0.5c-0.5-0.3-1-0.8-1.3-1.4v5.8H209.7z
				 M211.1,72c0,1,0.3,1.7,0.8,2.3s1.2,0.9,2.1,0.9c0.9,0,1.5-0.3,2-0.8s0.7-1.3,0.7-2.2c0-1.1-0.2-1.9-0.7-2.5
				c-0.5-0.6-1.2-0.9-2.1-0.9c-0.9,0-1.6,0.3-2.1,0.9C211.3,70.2,211.1,71,211.1,72z"/>
			<path class="st7" d="M220,72c0-0.6,0.1-1.2,0.3-1.8c0.2-0.6,0.6-1.1,1-1.5c0.4-0.4,1-0.8,1.5-1s1.2-0.3,1.8-0.3
				c0.6,0,1.2,0.1,1.8,0.3c0.6,0.2,1.1,0.6,1.5,1c0.4,0.4,0.8,0.9,1,1.5s0.3,1.2,0.3,1.8c0,0.6-0.1,1.2-0.3,1.8
				c-0.2,0.6-0.6,1.1-1,1.5c-0.5,0.5-1,0.8-1.5,1c-0.6,0.2-1.2,0.4-1.8,0.4c-0.6,0-1.2-0.1-1.8-0.4c-0.6-0.2-1.1-0.6-1.5-1
				c-0.4-0.5-0.8-1-1-1.5S220,72.7,220,72z M221.6,72c0,0.9,0.3,1.7,0.9,2.3c0.6,0.6,1.3,0.9,2.2,0.9c0.9,0,1.6-0.3,2.2-0.9
				c0.6-0.6,0.9-1.4,0.9-2.3c0-0.9-0.3-1.7-0.9-2.3c-0.6-0.6-1.3-0.9-2.2-0.9c-0.9,0-1.6,0.3-2.2,0.9
				C221.9,70.3,221.6,71.1,221.6,72z"/>
			<path class="st7" d="M231.7,76.3v-8.6h1.3v1.8c0.4-0.7,0.8-1.3,1.3-1.6c0.4-0.3,1-0.5,1.6-0.5c0.2,0,0.3,0,0.5,0s0.3,0.1,0.5,0.1
				l-0.5,1.3c-0.2-0.1-0.3-0.1-0.5-0.1c-0.2,0-0.3,0-0.4,0c-0.8,0-1.4,0.3-1.8,0.8s-0.6,1.4-0.6,2.5v4.2H231.7z"/>
			<path class="st7" d="M246.5,67.7v8.6H245v-1.6c-0.3,0.6-0.8,1.1-1.3,1.4c-0.5,0.3-1.1,0.5-1.8,0.5c-1.2,0-2.2-0.4-3-1.3
				s-1.1-2-1.1-3.4c0-1.4,0.4-2.5,1.1-3.4c0.7-0.8,1.7-1.3,3-1.3c0.7,0,1.3,0.2,1.9,0.5c0.5,0.3,1,0.8,1.3,1.4v-1.6H246.5z
				 M245,72.1c0-1-0.3-1.8-0.8-2.4s-1.2-0.9-2.1-0.9c-0.9,0-1.6,0.3-2.1,0.8c-0.5,0.5-0.7,1.3-0.7,2.3c0,1,0.3,1.8,0.7,2.4
				c0.5,0.6,1.2,0.8,2.1,0.8c0.9,0,1.6-0.3,2.1-0.8C244.8,73.8,245,73.1,245,72.1z"/>
			<path class="st7" d="M249.7,68.9h-1.6v-1.2h1.6v-3.5h1.5v3.5h1.6v1.2h-1.6v7.4h-1.5V68.9z"/>
			<path class="st7" d="M254.1,63.5c0-0.3,0.1-0.5,0.3-0.8c0.2-0.2,0.5-0.3,0.8-0.3c0.3,0,0.5,0.1,0.8,0.3c0.2,0.2,0.3,0.5,0.3,0.8
				c0,0.3-0.1,0.5-0.3,0.8c-0.2,0.2-0.5,0.3-0.8,0.3s-0.6-0.1-0.8-0.3C254.3,64.1,254.1,63.8,254.1,63.5z M254.5,76.3v-8.6h1.5v8.6
				H254.5z"/>
			<path class="st7" d="M261.9,76.8l-4.3-9.2h1.7l2.6,6l2.6-6h1.7L261.9,76.8z"/>
			<path class="st7" d="M275.8,67.7v8.6h-1.4v-1.6c-0.3,0.6-0.8,1.1-1.3,1.4c-0.5,0.3-1.1,0.5-1.8,0.5c-1.2,0-2.2-0.4-3-1.3
				s-1.1-2-1.1-3.4c0-1.4,0.4-2.5,1.1-3.4c0.7-0.8,1.7-1.3,3-1.3c0.7,0,1.3,0.2,1.9,0.5c0.5,0.3,1,0.8,1.3,1.4v-1.6H275.8z
				 M274.4,72.1c0-1-0.3-1.8-0.8-2.4s-1.2-0.9-2.1-0.9c-0.9,0-1.6,0.3-2.1,0.8c-0.5,0.5-0.7,1.3-0.7,2.3c0,1,0.3,1.8,0.7,2.4
				c0.5,0.6,1.2,0.8,2.1,0.8c0.9,0,1.6-0.3,2.1-0.8C274.1,73.8,274.4,73.1,274.4,72.1z"/>
			<path class="st7" d="M277.8,74.9l1.3-0.8c0.2,0.5,0.5,0.8,0.9,1s0.8,0.3,1.3,0.3c0.5,0,0.9-0.1,1.2-0.4c0.3-0.2,0.4-0.6,0.4-0.9
				c0-0.3-0.1-0.6-0.3-0.8s-0.6-0.4-1.1-0.6c0,0-0.1,0-0.2-0.1c-2.1-0.7-3.1-1.6-3.1-2.7c0-0.8,0.3-1.4,0.8-1.9
				c0.6-0.5,1.3-0.7,2.2-0.7c0.7,0,1.4,0.1,1.9,0.4c0.5,0.3,0.9,0.7,1.1,1.3l-1.2,0.7c-0.2-0.4-0.4-0.7-0.8-0.9
				c-0.3-0.2-0.7-0.3-1.2-0.3c-0.4,0-0.8,0.1-1.1,0.4c-0.3,0.2-0.4,0.6-0.4,0.9c0,0.5,0.6,1,1.7,1.3c0.2,0.1,0.4,0.1,0.5,0.2
				c0.9,0.3,1.6,0.6,2,1c0.4,0.4,0.6,0.9,0.6,1.5c0,0.8-0.3,1.5-0.9,2c-0.6,0.5-1.3,0.8-2.3,0.8c-0.8,0-1.5-0.2-2-0.5
				C278.6,75.9,278.2,75.5,277.8,74.9z"/>
		</g>
	</g>
</g>
</svg>
